<?xml version="1.0" standalone="no"?>
<!DOCTYPE svg PUBLIC "-//W3C//DTD SVG 20010904//EN"
 "http://www.w3.org/TR/2001/REC-SVG-20010904/DTD/svg10.dtd">
<svg version="1.0" xmlns="http://www.w3.org/2000/svg"
 width="180.000000pt" height="180.000000pt" viewBox="0 0 180.000000 180.000000"
 preserveAspectRatio="xMidYMid meet">
<metadata>
Created by potrace 1.16, written by Peter Selinger 2001-2019
</metadata>
<g transform="translate(0.000000,180.000000) scale(0.100000,-0.100000)"
fill="#000000" stroke="none">
<path d="M0 900 l0 -900 900 0 900 0 0 900 0 900 -900 0 -900 0 0 -900z m520
565 c30 -16 56 -52 46 -63 -4 -3 -12 0 -18 6 -7 7 -31 12 -54 12 -35 0 -47 -5
-69 -32 -27 -32 -30 -65 -10 -111 15 -35 -25 -5 -45 34 -24 46 -24 52 -3 96
11 24 30 42 57 54 50 23 59 23 96 4z m927 -12 c28 -18 53 -63 53 -93 0 -30
-27 -78 -51 -90 -19 -10 -20 -10 -10 9 21 38 13 90 -16 117 -22 21 -35 25 -68
22 -22 -3 -48 -8 -57 -12 -30 -14 -8 34 26 55 35 22 82 19 123 -8z m-195 -18
l-17 -35 -306 0 -306 0 -14 28 c-7 15 -15 30 -17 35 -2 4 150 7 337 7 l341 0
-18 -35z m-479 -232 c8 -16 17 -40 20 -54 6 -25 5 -27 -40 -32 -75 -8 -109
-71 -63 -117 16 -16 33 -20 84 -20 l65 0 41 -131 41 -131 -24 -37 c-51 -77
-171 -98 -254 -45 -44 29 -66 60 -81 117 l-10 37 53 0 c49 0 53 -2 64 -29 22
-53 87 -66 126 -26 52 51 18 119 -65 130 -100 14 -152 72 -158 175 -6 98 22
141 113 177 50 19 73 16 88 -14z m174 -58 c51 -170 86 -280 92 -287 4 -4 17
22 30 57 21 60 25 65 52 65 65 0 93 80 43 119 -21 16 -41 21 -89 21 l-63 0
-16 47 c-9 26 -16 50 -16 55 0 12 161 8 197 -5 64 -24 122 -103 123 -168 0
-34 -47 -127 -71 -140 -19 -10 -19 -10 0 -47 29 -57 71 -180 71 -208 0 -21 -5
-24 -35 -24 -19 0 -38 -1 -41 -2 -4 -3 -57 126 -90 217 -5 16 -10 9 -25 -35
-9 -30 -20 -75 -24 -100 -10 -72 -24 -100 -50 -100 -19 0 -26 9 -39 48 -8 26
-38 121 -66 212 -29 91 -65 206 -81 255 -16 50 -29 94 -29 98 0 4 23 7 52 5
l52 -3 23 -80z m-527 -443 c0 -97 0 -98 -30 -120 -16 -12 -32 -22 -35 -22 -3
0 -5 54 -5 120 l0 120 35 0 35 0 0 -98z m-12 -189 c-30 -79 66 -154 137 -107
23 15 25 15 25 0 0 -22 -34 -54 -65 -62 -62 -16 -123 19 -145 82 -13 37 1 81
33 106 27 21 29 19 15 -19z m1066 6 c61 -72 3 -179 -97 -179 -29 0 -46 7 -68
29 -29 29 -37 51 -20 51 5 0 14 -7 21 -15 7 -8 28 -15 47 -15 68 0 115 80 83
141 -17 30 5 23 34 -12z m-412 -108 l167 -1 16 -30 c8 -16 15 -31 15 -35 0 -3
-151 -5 -335 -5 -184 0 -335 2 -335 4 0 2 7 17 15 32 13 26 21 30 72 34 32 3
94 4 138 4 44 -1 155 -2 247 -3z"/>
</g>
</svg>
